HIERARCHY
ROOT Hips
{
 OFFSET 0.000000 0.000000 0.000000
 CHANNELS 6 Xposition Yposition Zposition Yrotation Xrotation Zrotation
 JOINT Chest
 {
  OFFSET 0.000000 10.354800 0.006500
  CHANNELS 3 Yrotation Xrotation Zrotation
  JOINT Chest2
  {
   OFFSET 0.000000 10.435800 -0.013200
   CHANNELS 3 Yrotation Xrotation Zrotation
   JOINT Chest3
   {
    OFFSET 0.000000 10.393700 0.000000
    CHANNELS 3 Yrotation Xrotation Zrotation
    JOINT Chest4
    {
     OFFSET 0.000000 10.383100 0.000000
     CHANNELS 3 Yrotation Xrotation Zrotation
     JOINT Neck
     {
      OFFSET 0.000000 15.694000 0.000000
      CHANNELS 3 Yrotation Xrotation Zrotation
      JOINT Head
      {
       OFFSET 0.000000 9.711000 -0.028000
       CHANNELS 3 Yrotation Xrotation Zrotation
       End Site
       {
        OFFSET 0.000000 18.578700 -0.014800
       }
      }
     }
     JOINT RightCollar
     {
      OFFSET -3.157200 10.367500 0.000000
      CHANNELS 3 Yrotation Xrotation Zrotation
      JOINT RightShoulder
      {
       OFFSET -14.482500 0.000000 0.000000
       CHANNELS 3 Yrotation Xrotation Zrotation
       JOINT RightElbow
       {
        OFFSET 0.000000 -31.707800 0.000000
        CHANNELS 3 Yrotation Xrotation Zrotation
        JOINT RightWrist
        {
         OFFSET 0.000000 -25.659300 0.000000
         CHANNELS 3 Yrotation Xrotation Zrotation
         End Site
         {
          OFFSET 0.000000 -18.994300 0.000000
         }
        }
       }
      }
     }
     JOINT LeftCollar
     {
      OFFSET 3.157200 10.367500 0.000000
      CHANNELS 3 Yrotation Xrotation Zrotation
      JOINT LeftShoulder
      {
       OFFSET 14.482500 0.000000 0.000000
       CHANNELS 3 Yrotation Xrotation Zrotation
       JOINT LeftElbow
       {
        OFFSET 0.000000 -31.707800 0.000000
        CHANNELS 3 Yrotation Xrotation Zrotation
        JOINT LeftWrist
        {
         OFFSET 0.000000 -25.659300 0.000000
         CHANNELS 3 Yrotation Xrotation Zrotation
         End Site
         {
          OFFSET 0.000000 -18.994300 0.000000
         }
        }
       }
      }
     }
    }
   }
  }
 }
 JOINT RightHip
 {
  OFFSET -8.365600 -0.032100 -0.003200
  CHANNELS 3 Yrotation Xrotation Zrotation
  JOINT RightKnee
  {
   OFFSET 0.000000 -43.980000 0.003100
   CHANNELS 3 Yrotation Xrotation Zrotation
   JOINT RightAnkle
   {
    OFFSET 0.000000 -42.882800 0.005200
    CHANNELS 3 Yrotation Xrotation Zrotation
    JOINT RightToe
    {
     OFFSET 0.000000 -4.915500 10.826300
     CHANNELS 3 Yrotation Xrotation Zrotation
     End Site
     {
      OFFSET 0.000000 -1.517500 6.175900
     }
    }
   }
  }
 }
 JOINT LeftHip
 {
  OFFSET 8.365600 -0.032100 -0.003200
  CHANNELS 3 Yrotation Xrotation Zrotation
  JOINT LeftKnee
  {
   OFFSET 0.000000 -43.980000 0.003100
   CHANNELS 3 Yrotation Xrotation Zrotation
   JOINT LeftAnkle
   {
    OFFSET 0.000000 -42.882800 0.005200
    CHANNELS 3 Yrotation Xrotation Zrotation
    JOINT LeftToe
    {
     OFFSET 0.000000 -4.915500 10.826300
     CHANNELS 3 Yrotation Xrotation Zrotation
     End Site
     {
      OFFSET 0.000000 -1.517500 6.175900
     }
    }
   }
  }
 }
}
MOTION
Frames: 16
Frame Time: 0.008333
0.000000 91.618600 0.000000 0.000000 -5.767877 0.000000 0.000000 11.653817 0.000000 0.000000 -5.885947 0.000000 0.000000 -0.000000 0.000000 0.000000 -0.000000 0.000000 0.000000 12.528835 0.000000 0.000000 0.711642 0.000000 0.000000 -0.000000 0.000000 0.000000 0.000000 -90.000000 0.000000 -2.309062 0.000000 0.000000 2.309062 0.000000 0.000000 -0.000000 0.000000 0.000000 -0.000000 90.000000 0.000000 -2.309062 0.000000 0.000000 2.309062 0.000000 0.000000 8.520406 0.000000 0.000000 1.905762 0.000000 -0.000000 -4.658285 0.000000 0.000000 -0.000000 0.000000 0.000000 8.520406 0.000000 0.000000 1.905762 0.000000 -0.000000 -4.658285 0.000000 0.000000 -0.000000 0.000000
-6.128011 126.816004 34.925216 174.431499 -25.345046 -3.323262 -0.393276 15.039791 3.048465 -0.071317 1.406843 0.287562 -0.117789 2.363515 0.476464 -0.394251 13.411727 2.718572 -0.656893 18.356578 -2.330821 -0.159260 -6.371409 -2.316323 3.993791 2.775096 -11.236154 -14.026977 -27.115873 -35.152466 -165.032389 -57.102842 168.244435 -19.232505 -14.178203 -10.324467 -0.771998 3.565452 5.773229 26.299329 -30.031124 22.911711 165.584614 -52.222608 -167.086547 23.857131 -12.943451 28.922807 7.426499 -56.861236 6.485668 -102.692807 81.817676 -94.921587 2.957879 -12.494317 -16.609431 -0.000657 -0.000007 -0.000298 -14.484644 -56.163203 8.696418 96.711672 82.893766 90.045448 -9.595264 -8.425723 2.417678 -0.001372 0.000258 -0.000623
-6.125984 126.815450 34.925670 174.417955 -25.335789 -3.327648 -0.387082 15.030162 3.047470 -0.070099 1.406409 0.286628 -0.113742 2.363320 0.481746 -0.385325 13.405892 2.717002 -0.655755 18.357139 -2.326936 -0.148421 -6.398067 -2.324249 3.999868 2.778659 -11.232674 -14.094770 -27.139650 -35.115993 -165.022097 -57.063962 168.239471 -19.237336 -14.228687 -10.362418 -0.749098 3.566833 5.774773 26.317553 -30.036095 22.888446 165.558128 -52.181787 -167.090079 23.888902 -13.027313 28.967605 7.427518 -56.873432 6.500389 -102.623825 81.810882 -94.849136 2.963276 -12.454894 -16.618381 -0.000632 0.002438 -0.000287 -14.489110 -56.172227 8.716790 96.735473 82.894495 90.069582 -9.557350 -8.429260 2.412199 0.000951 -0.000058 0.000432
-6.125445 126.815192 34.924831 174.415615 -25.330245 -3.326776 -0.387447 15.024752 3.045835 -0.069805 1.407883 0.285707 -0.111972 2.361362 0.480735 -0.385776 13.403434 2.713008 -0.646576 18.342999 -2.328516 -0.146978 -6.400758 -2.320202 4.004696 2.780842 -11.226291 -14.192707 -27.196733 -35.050717 -164.965744 -57.056709 168.272576 -19.222663 -14.313697 -10.420306 -0.736560 3.570186 5.779648 26.362406 -30.044344 22.853366 165.524327 -52.138845 -167.093588 23.931481 -13.085639 28.985629 7.429961 -56.874807 6.498281 -102.644480 81.818950 -94.865294 2.965104 -12.454674 -16.632115 0.000232 0.006137 0.000105 -14.488921 -56.178309 8.719685 96.750464 82.893975 90.083412 -9.550827 -8.432143 2.412989 0.000192 0.000073 0.000087
-6.125655 126.814853 34.923705 174.422057 -25.322933 -3.324119 -0.395095 15.022322 3.039071 -0.069495 1.404149 0.286509 -0.107577 2.359307 0.478621 -0.387214 13.400959 2.711018 -0.635047 18.302181 -2.337718 -0.152248 -6.379540 -2.307540 4.004851 2.784368 -11.221086 -14.238544 -27.226892 -35.022595 -165.005434 -56.967378 168.240200 -19.240768 -14.262971 -10.396638 -0.735179 3.574725 5.783985 26.388405 -30.049095 22.833874 165.429011 -51.996667 -166.988279 23.925406 -13.034764 28.985412 7.426859 -56.877868 6.490154 -102.723952 81.831839 -94.942473 2.963556 -12.481177 -16.645803 0.000116 0.006277 0.000053 -14.487930 -56.187438 8.711528 96.753566 82.892202 90.086408 -9.542153 -8.434089 2.411478 0.000459 0.000289 0.000208
-6.125294 126.814566 34.922347 174.432744 -25.314853 -3.325208 -0.400031 15.014904 3.037148 -0.069894 1.402950 0.285805 -0.106080 2.359372 0.476545 -0.392939 13.393566 2.705856 -0.631266 18.303534 -2.331396 -0.128979 -6.451007 -2.334912 4.006601 2.788576 -11.208583 -14.285134 -27.259081 -35.003311 -165.023255 -56.898334 168.224041 -19.253638 -14.240460 -10.392963 -0.718339 3.585790 5.788095 26.401687 -30.059248 22.813820 165.330218 -51.883626 -166.900348 23.939876 -13.025863 28.974448 7.412271 -56.879966 6.496644 -102.809492 81.843798 -95.028556 2.954148 -12.531257 -16.658634 0.002892 0.004594 0.001313 -14.494668 -56.197338 8.705346 96.750918 82.881703 90.088728 -9.548119 -8.434939 2.404026 0.000973 0.000637 0.000442
-6.124980 126.814334 34.920628 174.436630 -25.307085 -3.322303 -0.397018 15.010435 3.032201 -0.070068 1.401519 0.285505 -0.105257 2.358015 0.476656 -0.388363 13.380724 2.696313 -0.633116 18.295834 -2.324923 -0.131318 -6.444555 -2.330902 3.996986 2.798072 -11.189220 -14.336019 -27.293415 -34.986143 -165.024320 -56.838928 168.212408 -19.265572 -14.239364 -10.395138 -0.718850 3.604806 5.796458 26.470358 -30.083883 22.762611 165.208484 -51.780761 -166.840926 23.970615 -13.043824 28.946950 7.415511 -56.884294 6.487750 -102.896404 81.859482 -95.110843 2.950393 -12.589372 -16.668016 0.002703 0.000909 0.001227 -14.495287 -56.206630 8.698925 96.734062 82.873179 90.074280 -9.557776 -8.434218 2.398089 0.000782 0.000455 0.000355
-6.125447 126.813037 34.920809 174.442263 -25.285099 -3.316873 -0.396371 14.993249 3.025795 -0.070113 1.399732 0.284906 -0.109323 2.355422 0.476957 -0.383825 13.373081 2.689812 -0.634522 18.285680 -2.337776 -0.135390 -6.436575 -2.313931 3.991044 2.799889 -11.175148 -14.385638 -27.322443 -34.969613 -165.029218 -56.777680 168.206351 -19.282329 -14.221365 -10.386526 -0.722825 3.615011 5.795343 26.611721 -30.116796 22.673172 165.048035 -51.661455 -166.804333 24.005260 -13.067002 28.905165 7.421275 -56.903226 6.477269 -102.916845 81.860201 -95.132528 2.947937 -12.643707 -16.667758 0.003957 -0.002502 0.001797 -14.498659 -56.230654 8.693753 96.694074 82.869918 90.032843 -9.557749 -8.429950 2.397146 0.000515 0.000981 0.000234
-6.126661 126.812119 34.919777 174.448056 -25.268187 -3.307483 -0.397023 14.983472 3.015367 -0.069688 1.397806 0.284128 -0.113257 2.350973 0.477012 -0.380808 13.364170 2.683541 -0.639649 18.288142 -2.338364 -0.143957 -6.437423 -2.325723 3.985541 2.800099 -11.162210 -14.433877 -27.347474 -34.946427 -165.046033 -56.713280 168.213835 -19.306420 -14.157811 -10.363815 -0.728387 3.622524 5.802585 26.715686 -30.134979 22.599816 164.936249 -51.543406 -166.767697 24.045370 -13.089483 28.853326 7.429667 -56.919708 6.457794 -103.034233 81.875375 -95.253554 2.931232 -12.699649 -16.659696 0.001552 -0.005025 0.000704 -14.494799 -56.250417 8.679173 96.684715 82.868723 90.019913 -9.551674 -8.429848 2.398401 0.000442 0.001314 0.000201
-6.127229 126.811845 34.917273 174.450627 -25.259335 -3.300817 -0.391352 14.984792 3.004118 -0.071265 1.389064 0.287628 -0.110723 2.349367 0.470876 -0.385462 13.358195 2.688308 -0.644298 18.288126 -2.340727 -0.148898 -6.436073 -2.325227 3.984501 2.799575 -11.153985 -14.491448 -27.375007 -34.914335 -165.061923 -56.642301 168.224462 -19.307075 -14.252267 -10.382778 -0.732763 3.624443 5.805354 26.757318 -30.139875 22.571940 164.879306 -51.426906 -166.715491 24.080419 -13.107038 28.801818 7.439754 -56.932001 6.444547 -103.134166 81.893525 -95.356532 2.907209 -12.734792 -16.645939 -0.000638 -0.009021 -0.000289 -14.489115 -56.261329 8.659108 96.656154 82.856220 89.991733 -9.532333 -8.432912 2.394505 -0.000036 0.000280 -0.000016
-6.127465 126.811416 34.914906 174.450070 -25.248674 -3.296329 -0.390113 14.980872 2.995508 -0.071668 1.386518 0.288423 -0.109689 2.347116 0.469559 -0.385672 13.354459 2.692847 -0.648198 18.282386 -2.345444 -0.153843 -6.437959 -2.324007 3.987635 2.796862 -11.152167 -14.564746 -27.407122 -34.874091 -165.066095 -56.564846 168.232566 -19.315191 -14.288653 -10.388327 -0.712322 3.616753 5.790242 26.838358 -30.162391 22.499463 164.814811 -51.299903 -166.718563 24.102330 -13.117348 28.757989 7.448402 -56.947229 6.434697 -103.169299 81.896528 -95.393849 2.900250 -12.744114 -16.633280 -0.002525 -0.012200 -0.001146 -14.487610 -56.273038 8.656561 96.643854 82.853585 89.974357 -9.534341 -8.433496 2.397951 -0.001195 -0.000662 -0.000543
-6.126660 126.810560 34.913452 174.453048 -25.231784 -3.301020 -0.391488 14.970284 2.994453 -0.068710 1.389978 0.282768 -0.111639 2.338608 0.474865 -0.382859 13.348316 2.692149 -0.652233 18.277028 -2.342709 -0.156829 -6.437323 -2.321947 3.988199 2.796444 -11.147216 -14.644762 -27.437860 -34.828340 -165.072802 -56.481730 168.248566 -19.324095 -14.299899 -10.395308 -0.705782 3.618221 5.791555 26.954213 -30.188279 22.397556 164.767108 -51.163709 -166.745198 24.112702 -13.117738 28.725494 7.447584 -56.966769 6.435986 -103.138206 81.893612 -95.362964 2.896615 -12.730200 -16.623681 -0.003200 -0.012265 -0.001452 -14.503601 -56.289851 8.670052 96.658665 82.853350 89.987654 -9.526889 -8.436461 2.396049 -0.000668 0.000236 -0.000303
-6.123900 126.809338 34.912936 174.442465 -25.210171 -3.312097 -0.378457 14.953109 3.006140 -0.068412 1.387323 0.283677 -0.111086 2.335595 0.473582 -0.379721 13.342846 2.693592 -0.656142 18.273701 -2.341030 -0.156417 -6.431520 -2.320113 3.988808 2.796918 -11.145572 -14.723864 -27.461976 -34.781295 -165.097692 -56.392317 168.279067 -19.327641 -14.310807 -10.418009 -0.705682 3.623347 5.794322 27.008179 -30.200872 22.351116 164.771770 -51.024148 -166.742206 24.117901 -13.112784 28.706386 7.459993 -56.990841 6.446001 -102.935844 81.860570 -95.155471 2.923693 -12.695932 -16.613686 -0.004982 -0.012276 -0.002262 -14.526364 -56.311459 8.710752 96.734511 82.857246 90.065453 -9.506562 -8.443772 2.389484 0.004302 0.000769 0.001953
-6.121861 126.807310 34.913751 174.434576 -25.178624 -3.321097 -0.369504 14.924571 3.015897 -0.068253 1.384593 0.285727 -0.110765 2.334229 0.472433 -0.378793 13.332798 2.690125 -0.656260 18.281106 -2.335626 -0.162025 -6.445373 -2.318958 3.993649 2.802618 -11.142626 -14.785998 -27.474000 -34.744711 -165.149186 -56.301411 168.313723 -19.329075 -14.326103 -10.450981 -0.693345 3.630223 5.795952 27.145344 -30.236528 22.224803 164.762211 -50.879483 -166.814799 24.120368 -13.108803 28.701576 7.461406 -57.022497 6.457699 -102.810381 81.846500 -95.027391 2.933504 -12.669548 -16.610327 -0.005569 -0.010307 -0.002528 -14.557901 -56.343019 8.756564 96.794941 82.861059 90.123718 -9.517912 -8.446950 2.389336 0.004304 0.001895 0.001954
-6.120943 126.806643 34.911067 174.429194 -25.166146 -3.322258 -0.365527 14.915360 3.016041 -0.066692 1.383206 0.284715 -0.110350 2.331310 0.474605 -0.370262 13.308927 2.688650 -0.665518 18.289782 -2.331463 -0.168482 -6.449384 -2.316893 3.988448 2.824478 -11.137720 -14.866827 -27.495073 -34.695528 -165.193462 -56.206314 168.360298 -19.329826 -14.349021 -10.487696 -0.690491 3.652801 5.792001 27.279774 -30.272633 22.099436 164.787064 -50.728896 -166.911548 24.117927 -13.107088 28.713248 7.465076 -57.036009 6.461050 -102.743332 81.836890 -94.960413 2.943938 -12.625626 -16.611867 -0.006236 -0.007062 -0.002831 -14.573110 -56.357258 8.779644 96.842255 82.865501 90.169300 -9.558436 -8.445342 2.392565 0.001472 0.000904 0.000668
-6.119721 126.806657 34.906755 174.430251 -25.162026 -3.325429 -0.365687 14.916445 3.015490 -0.068097 1.377780 0.284838 -0.109022 2.327627 0.474463 -0.370506 13.302187 2.686048 -0.680949 18.268051 -2.335474 -0.165946 -6.439238 -2.312907 3.995480 2.832940 -11.133659 -14.974104 -27.524269 -34.630293 -165.226590 -56.105988 168.418672 -19.330707 -14.374905 -10.528722 -0.682756 3.666145 5.787285 27.390829 -30.299991 21.998421 164.854853 -50.571612 -167.009353 24.116513 -13.108277 28.735207 7.468344 -57.039786 6.465086 -102.710672 81.828865 -94.924158 2.945946 -12.583829 -16.617425 -0.005459 -0.002424 -0.002479 -14.588817 -56.363797 8.793571 96.890030 82.865404 90.216561 -9.579577 -8.444047 2.392369 0.000200 -0.000902 0.000091
